<?xml version="1.0" encoding="UTF-8" standalone="no"?>
<!-- Created by diasvg.py -->
<svg width="59.175cm" height="39.250cm" viewBox="0.950 0.875 60.125 40.125"
 xmlns="http://www.w3.org/2000/svg"
 xmlns:xlink="http://www.w3.org/1999/xlink">
<rect x="12.000" y="5.000" width="6.043" height="5.915" fill="#FFFFFF" stroke="none" stroke-width="0"/>
<rect x="12.000" y="5.000" width="6.043" height="5.915" fill="none" stroke="#000000" stroke-width="0.250" />
<text x="15.021" y="8.368"  fill="#000000" text-anchor="middle" font-size="1.69" font-family="sans" font-style="normal" font-weight="400">
CBT-01</text>
<rect x="12.000" y="29.000" width="6.043" height="5.915" fill="#FFFFFF" stroke="none" stroke-width="0"/>
<rect x="12.000" y="29.000" width="6.043" height="5.915" fill="none" stroke="#000000" stroke-width="0.250" />
<text x="15.021" y="32.368"  fill="#000000" text-anchor="middle" font-size="1.69" font-family="sans" font-style="normal" font-weight="400">
CBT-03</text>
<rect x="12.000" y="17.000" width="6.043" height="5.915" fill="#FFFFFF" stroke="none" stroke-width="0"/>
<rect x="12.000" y="17.000" width="6.043" height="5.915" fill="none" stroke="#000000" stroke-width="0.250" />
<text x="15.021" y="20.368"  fill="#000000" text-anchor="middle" font-size="1.69" font-family="sans" font-style="normal" font-weight="400">
CBT-02</text>
<line x1="15.021" y1="10.915" x2="15.021" y2="17.000" stroke="#000000" stroke-width="0.250" />
<line x1="15.021" y1="29.000" x2="15.021" y2="22.915" stroke="#000000" stroke-width="0.250" />
<text x="1.000" y="15.000"  fill="#000000" text-anchor="start" font-size="2.12" font-family="sans" font-style="normal" font-weight="400">
 Antenna</text>
<text x="1.000" y="17.117"  fill="#000000" text-anchor="start" font-size="2.12" font-family="sans" font-style="normal" font-weight="400">
Fields (24)</text>
<polygon fill="#FFFFFF" stroke="none" stroke-width="0.250" points="2.505,22.000 4.011,23.253 2.505,24.505 1.000,23.253 "/>
<polygon fill="none" stroke="#000000" stroke-width="0.100"  points="2.505,22.000 4.011,23.253 2.505,24.505 1.000,23.253 "/>
<polygon fill="#FFFFFF" stroke="none" stroke-width="0.100" points="6.505,18.000 8.011,19.253 6.505,20.505 5.000,19.253 "/>
<polygon fill="none" stroke="#000000" stroke-width="0.100"  points="6.505,18.000 8.011,19.253 6.505,20.505 5.000,19.253 "/>
<line x1="4.000" y1="19.000" x2="4.000" y2="21.000" stroke="#000000" stroke-width="0.100" />
<line x1="4.000" y1="19.000" x2="5.000" y2="20.000" stroke="#000000" stroke-width="0.100" />
<line x1="4.000" y1="19.000" x2="3.000" y2="22.000" stroke="#000000" stroke-width="0.100" />
<line x1="4.000" y1="19.000" x2="3.000" y2="20.000" stroke="#000000" stroke-width="0.100" />
<line x1="4.000" y1="19.000" x2="5.000" y2="22.000" stroke="#000000" stroke-width="0.100" />
<text x="1.000" y="3.000"  fill="#000000" text-anchor="start" font-size="2.12" font-family="sans" font-style="normal" font-weight="400">
 Antenna</text>
<text x="1.000" y="5.117"  fill="#000000" text-anchor="start" font-size="2.12" font-family="sans" font-style="normal" font-weight="400">
Fields (24)</text>
<polygon fill="#FFFFFF" stroke="none" stroke-width="0.100" points="2.505,10.000 4.011,11.253 2.505,12.505 1.000,11.253 "/>
<polygon fill="none" stroke="#000000" stroke-width="0.100"  points="2.505,10.000 4.011,11.253 2.505,12.505 1.000,11.253 "/>
<polygon fill="#FFFFFF" stroke="none" stroke-width="0.100" points="6.505,6.000 8.011,7.253 6.505,8.505 5.000,7.253 "/>
<polygon fill="none" stroke="#000000" stroke-width="0.100"  points="6.505,6.000 8.011,7.253 6.505,8.505 5.000,7.253 "/>
<line x1="4.000" y1="7.000" x2="4.000" y2="9.000" stroke="#000000" stroke-width="0.100" />
<line x1="4.000" y1="7.000" x2="5.000" y2="8.000" stroke="#000000" stroke-width="0.100" />
<line x1="4.000" y1="7.000" x2="3.000" y2="10.000" stroke="#000000" stroke-width="0.100" />
<line x1="4.000" y1="7.000" x2="3.000" y2="8.000" stroke="#000000" stroke-width="0.100" />
<line x1="4.000" y1="7.000" x2="5.000" y2="10.000" stroke="#000000" stroke-width="0.100" />
<text x="1.000" y="27.000"  fill="#000000" text-anchor="start" font-size="2.12" font-family="sans" font-style="normal" font-weight="400">
 Antenna</text>
<text x="1.000" y="29.117"  fill="#000000" text-anchor="start" font-size="2.12" font-family="sans" font-style="normal" font-weight="400">
Fields (22)</text>
<polygon fill="#FFFFFF" stroke="none" stroke-width="0.100" points="2.505,34.000 4.011,35.253 2.505,36.505 1.000,35.253 "/>
<polygon fill="none" stroke="#000000" stroke-width="0.100"  points="2.505,34.000 4.011,35.253 2.505,36.505 1.000,35.253 "/>
<polygon fill="#FFFFFF" stroke="none" stroke-width="0.100" points="6.505,30.000 8.011,31.253 6.505,32.505 5.000,31.253 "/>
<polygon fill="none" stroke="#000000" stroke-width="0.100"  points="6.505,30.000 8.011,31.253 6.505,32.505 5.000,31.253 "/>
<line x1="4.000" y1="31.000" x2="4.000" y2="33.000" stroke="#000000" stroke-width="0.100" />
<line x1="4.000" y1="31.000" x2="5.000" y2="32.000" stroke="#000000" stroke-width="0.100" />
<line x1="4.000" y1="31.000" x2="3.000" y2="34.000" stroke="#000000" stroke-width="0.100" />
<line x1="4.000" y1="31.000" x2="3.000" y2="32.000" stroke="#000000" stroke-width="0.100" />
<line x1="4.000" y1="31.000" x2="5.000" y2="34.000" stroke="#000000" stroke-width="0.100" />
<path stroke="#000000" fill="none" stroke-width="0.250"  d ="M 12.000,9.436 A 55.848,55.848 0 0,0 12.000,30.479 "/>
<line x1="9.000" y1="8.000" x2="12.000" y2="7.957" stroke="#000000" stroke-width="0.250" />
<line x1="9.000" y1="20.000" x2="12.000" y2="19.957" stroke="#000000" stroke-width="0.250" />
<line x1="9.000" y1="32.000" x2="12.000" y2="31.957" stroke="#000000" stroke-width="0.250" />
<rect x="21.000" y="2.000" width="16.000" height="14.000" fill="#FFFFFF" stroke="none" stroke-width="0"/>
<rect x="21.000" y="2.000" width="16.000" height="14.000" fill="none" stroke="#000000" stroke-width="0.250" />
<line x1="10.000" y1="1.000" x2="10.000" y2="40.000" stroke="#000000" stroke-width="0.250" stroke-dasharray="0.10,0.10"/>
<line x1="15.000" y1="36.000" x2="15.021" y2="34.915" stroke="#000000" stroke-width="0.250" />
<text x="14.000" y="38.000"  fill="#000000" text-anchor="start" font-size="2.12" font-family="sans" font-style="normal" font-weight="400">
LTA</text>
<text x="22.000" y="4.000"  fill="#000000" text-anchor="start" font-size="2.12" font-family="sans" font-style="normal" font-weight="400">
cbt001</text>
<rect x="24.000" y="5.000" width="5.000" height="4.000" fill="#FFFFFF" stroke="none" stroke-width="0"/>
<rect x="24.000" y="5.000" width="5.000" height="4.000" fill="none" stroke="#000000" stroke-width="0.100" />
<text x="26.500" y="7.411"  fill="#000000" text-anchor="middle" font-size="1.69" font-family="sans" font-style="normal" font-weight="400">
CPU0</text>
<rect x="24.000" y="11.000" width="5.000" height="4.000" fill="#FFFFFF" stroke="none" stroke-width="0"/>
<rect x="24.000" y="11.000" width="5.000" height="4.000" fill="none" stroke="#000000" stroke-width="0.100" />
<text x="26.500" y="13.411"  fill="#000000" text-anchor="middle" font-size="1.69" font-family="sans" font-style="normal" font-weight="400">
CPU1</text>
<line x1="21.000" y1="10.000" x2="37.000" y2="10.000" stroke="#000000" stroke-width="0.100" stroke-dasharray="0.10,0.10"/>
<rect x="31.000" y="4.757" width="5.000" height="4.487" fill="#FFFFFF" stroke="none" stroke-width="0"/>
<rect x="31.000" y="4.757" width="5.000" height="4.487" fill="none" stroke="#000000" stroke-width="0.100" />
<text x="33.500" y="6.564"  fill="#000000" text-anchor="middle" font-size="1.69" font-family="sans" font-style="normal" font-weight="400">
GPU0</text>
<text x="33.500" y="8.258"  fill="#000000" text-anchor="middle" font-size="1.69" font-family="sans" font-style="normal" font-weight="400">
GPU1</text>
<rect x="31.000" y="11.000" width="5.000" height="4.487" fill="#FFFFFF" stroke="none" stroke-width="0"/>
<rect x="31.000" y="11.000" width="5.000" height="4.487" fill="none" stroke="#000000" stroke-width="0.100" />
<text x="33.500" y="12.808"  fill="#000000" text-anchor="middle" font-size="1.69" font-family="sans" font-style="normal" font-weight="400">
GPU2</text>
<text x="33.500" y="14.501"  fill="#000000" text-anchor="middle" font-size="1.69" font-family="sans" font-style="normal" font-weight="400">
GPU3</text>
<line x1="26.500" y1="11.000" x2="26.500" y2="9.000" stroke="#000000" stroke-width="0.100" />
<line x1="31.000" y1="13.243" x2="29.000" y2="13.000" stroke="#000000" stroke-width="0.100" />
<line x1="31.000" y1="7.000" x2="29.000" y2="7.000" stroke="#000000" stroke-width="0.100" />
<polygon fill="#FFFFFF" stroke="none" stroke-width="0.100" points="20.811,6.000 24.000,6.000 23.189,8.229 20.000,8.229 "/>
<polygon fill="none" stroke="#000000" stroke-width="0.100"  points="20.811,6.000 24.000,6.000 23.189,8.229 20.000,8.229 "/>
<text x="22.000" y="7.390"  fill="#000000" text-anchor="middle" font-size="1.13" font-family="sans" font-style="normal" font-weight="400">
ib0</text>
<polygon fill="#FFFFFF" stroke="none" stroke-width="0.100" points="20.811,12.000 24.000,12.000 23.189,14.229 20.000,14.229 "/>
<polygon fill="none" stroke="#000000" stroke-width="0.100"  points="20.811,12.000 24.000,12.000 23.189,14.229 20.000,14.229 "/>
<text x="22.000" y="13.390"  fill="#000000" text-anchor="middle" font-size="1.13" font-family="sans" font-style="normal" font-weight="400">
ib1</text>
<rect x="21.000" y="32.000" width="16.000" height="7.000" fill="#FFFFFF" stroke="none" stroke-width="0"/>
<rect x="21.000" y="32.000" width="16.000" height="7.000" fill="none" stroke="#000000" stroke-width="0.250" />
<text x="22.000" y="34.000"  fill="#000000" text-anchor="start" font-size="2.12" font-family="sans" font-style="normal" font-weight="400">
cbt009</text>
<text x="22.000" y="35.000"  fill="#000000" text-anchor="start" font-size="1.41" font-family="sans" font-style="normal" font-weight="400">
(test/spare)</text>
<line x1="38.000" y1="1.000" x2="38.000" y2="40.000" stroke="#000000" stroke-width="0.250" stroke-dasharray="0.10,0.10"/>
<line x1="18.043" y1="5.000" x2="20.406" y2="7.114" stroke="#000000" stroke-width="0.250" />
<line x1="18.043" y1="5.000" x2="20.406" y2="13.114" stroke="#000000" stroke-width="0.250" />
<line x1="18.043" y1="7.957" x2="19.000" y2="11.000" stroke="#000000" stroke-width="0.250" />
<line x1="18.043" y1="7.957" x2="19.000" y2="12.000" stroke="#000000" stroke-width="0.250" />
<line x1="18.043" y1="10.915" x2="19.000" y2="14.000" stroke="#000000" stroke-width="0.250" />
<line x1="18.043" y1="10.915" x2="19.000" y2="15.000" stroke="#000000" stroke-width="0.250" />
<line x1="18.043" y1="34.915" x2="21.000" y2="35.500" stroke="#000000" stroke-width="0.250" />
<line x1="18.043" y1="34.915" x2="21.000" y2="39.000" stroke="#000000" stroke-width="0.250" />
<line x1="18.043" y1="31.957" x2="20.000" y2="32.000" stroke="#000000" stroke-width="0.250" />
<line x1="18.043" y1="31.957" x2="20.000" y2="31.000" stroke="#000000" stroke-width="0.250" />
<line x1="18.043" y1="29.000" x2="20.000" y2="29.000" stroke="#000000" stroke-width="0.250" />
<line x1="18.043" y1="29.000" x2="20.000" y2="28.000" stroke="#000000" stroke-width="0.250" />
<line x1="29.000" y1="16.000" x2="29.000" y2="32.000" stroke="#000000" stroke-width="0.500" stroke-dasharray="0.50,0.50"/>
<line x1="18.043" y1="17.000" x2="20.000" y2="19.000" stroke="#000000" stroke-width="0.250" />
<line x1="18.043" y1="17.000" x2="20.000" y2="18.000" stroke="#000000" stroke-width="0.250" />
<line x1="18.043" y1="19.957" x2="20.000" y2="20.000" stroke="#000000" stroke-width="0.250" />
<line x1="18.043" y1="19.957" x2="20.000" y2="21.000" stroke="#000000" stroke-width="0.250" />
<line x1="18.043" y1="22.915" x2="20.000" y2="24.000" stroke="#000000" stroke-width="0.250" />
<line x1="18.043" y1="22.915" x2="20.000" y2="23.000" stroke="#000000" stroke-width="0.250" />
<rect x="40.000" y="11.000" width="6.042" height="5.000" fill="#FFFFFF" stroke="none" stroke-width="0"/>
<rect x="40.000" y="11.000" width="6.042" height="5.000" fill="none" stroke="#000000" stroke-width="0.250" />
<text x="43.021" y="13.064"  fill="#000000" text-anchor="middle" font-size="1.69" font-family="sans" font-style="normal" font-weight="400">
CEP2</text>
<text x="43.021" y="14.758"  fill="#000000" text-anchor="middle" font-size="1.69" font-family="sans" font-style="normal" font-weight="400">
R1</text>
<rect x="40.000" y="17.000" width="6.042" height="5.000" fill="#FFFFFF" stroke="none" stroke-width="0"/>
<rect x="40.000" y="17.000" width="6.042" height="5.000" fill="none" stroke="#000000" stroke-width="0.250" />
<text x="43.021" y="19.064"  fill="#000000" text-anchor="middle" font-size="1.69" font-family="sans" font-style="normal" font-weight="400">
CEP2</text>
<text x="43.021" y="20.758"  fill="#000000" text-anchor="middle" font-size="1.69" font-family="sans" font-style="normal" font-weight="400">
R2</text>
<rect x="40.000" y="24.000" width="6.042" height="5.000" fill="#FFFFFF" stroke="none" stroke-width="0"/>
<rect x="40.000" y="24.000" width="6.042" height="5.000" fill="none" stroke="#000000" stroke-width="0.250" />
<text x="43.021" y="26.064"  fill="#000000" text-anchor="middle" font-size="1.69" font-family="sans" font-style="normal" font-weight="400">
CEP2</text>
<text x="43.021" y="27.758"  fill="#000000" text-anchor="middle" font-size="1.69" font-family="sans" font-style="normal" font-weight="400">
R3</text>
<rect x="40.000" y="30.000" width="6.042" height="5.000" fill="#FFFFFF" stroke="none" stroke-width="0"/>
<rect x="40.000" y="30.000" width="6.042" height="5.000" fill="none" stroke="#000000" stroke-width="0.250" />
<text x="43.021" y="32.064"  fill="#000000" text-anchor="middle" font-size="1.69" font-family="sans" font-style="normal" font-weight="400">
CEP2</text>
<text x="43.021" y="33.758"  fill="#000000" text-anchor="middle" font-size="1.69" font-family="sans" font-style="normal" font-weight="400">
R4</text>
<line x1="40.000" y1="13.500" x2="39.000" y2="18.000" stroke="#000000" stroke-width="0.250" />
<line x1="39.000" y1="18.000" x2="24.000" y2="18.000" stroke="#000000" stroke-width="0.250" />
<line x1="40.000" y1="19.500" x2="39.000" y2="18.000" stroke="#000000" stroke-width="0.250" />
<line x1="39.000" y1="26.000" x2="22.000" y2="26.000" stroke="#000000" stroke-width="0.250" />
<line x1="39.000" y1="26.000" x2="40.000" y2="32.500" stroke="#000000" stroke-width="0.250" />
<line x1="39.000" y1="26.000" x2="40.000" y2="26.500" stroke="#000000" stroke-width="0.250" />
<rect x="48.000" y="35.000" width="12.000" height="4.000" fill="#FFFFFF" stroke="none" stroke-width="0"/>
<rect x="48.000" y="35.000" width="12.000" height="4.000" fill="none" stroke="#000000" stroke-width="0.250" />
<text x="49.000" y="37.000"  fill="#000000" text-anchor="start" font-size="2.12" font-family="sans" font-style="normal" font-weight="400">
locus102</text>
<rect x="48.000" y="2.000" width="12.000" height="7.000" fill="#FFFFFF" stroke="none" stroke-width="0"/>
<rect x="48.000" y="2.000" width="12.000" height="7.000" fill="none" stroke="#000000" stroke-width="0.250" />
<text x="49.000" y="4.000"  fill="#000000" text-anchor="start" font-size="2.12" font-family="sans" font-style="normal" font-weight="400">
locus001</text>
<line x1="54.000" y1="9.000" x2="54.000" y2="35.000" stroke="#000000" stroke-width="0.500" stroke-dasharray="0.50,0.50"/>
<line x1="46.042" y1="13.500" x2="48.000" y2="5.500" stroke="#000000" stroke-width="0.250" />
<line x1="46.042" y1="13.500" x2="48.000" y2="12.000" stroke="#000000" stroke-width="0.250" />
<line x1="46.042" y1="32.500" x2="48.000" y2="37.000" stroke="#000000" stroke-width="0.250" />
<line x1="46.042" y1="13.500" x2="47.000" y2="15.000" stroke="#000000" stroke-width="0.250" />
<line x1="46.042" y1="19.500" x2="47.000" y2="19.000" stroke="#000000" stroke-width="0.250" />
<line x1="46.042" y1="19.500" x2="47.000" y2="20.000" stroke="#000000" stroke-width="0.250" />
<line x1="46.042" y1="26.500" x2="47.000" y2="26.000" stroke="#000000" stroke-width="0.250" />
<line x1="46.042" y1="26.500" x2="47.000" y2="27.000" stroke="#000000" stroke-width="0.250" />
<line x1="46.042" y1="32.500" x2="48.000" y2="33.000" stroke="#000000" stroke-width="0.250" />
<line x1="46.042" y1="32.500" x2="47.000" y2="31.000" stroke="#000000" stroke-width="0.250" />
<rect x="49.000" y="5.000" width="4.718" height="3.000" fill="#FFFFFF" stroke="none" stroke-width="0"/>
<rect x="49.000" y="5.000" width="4.718" height="3.000" fill="none" stroke="#000000" stroke-width="0.100" />
<text x="51.359" y="6.911"  fill="#000000" text-anchor="middle" font-size="1.69" font-family="sans" font-style="normal" font-weight="400">
CPU0</text>
<rect x="54.000" y="5.000" width="5.000" height="3.000" fill="#FFFFFF" stroke="none" stroke-width="0"/>
<rect x="54.000" y="5.000" width="5.000" height="3.000" fill="none" stroke="#000000" stroke-width="0.100" />
<text x="56.500" y="6.911"  fill="#000000" text-anchor="middle" font-size="1.69" font-family="sans" font-style="normal" font-weight="400">
CPU1</text>
<path stroke="#000000" fill="none" stroke-width="0.250"  d ="M 16.532,10.915 A 7.650,7.650 0 0,0 24.000,18.000 "/>
<path stroke="#000000" fill="none" stroke-width="0.250"  d ="M 16.532,22.915 A 5.427,5.427 0 0,0 22.000,26.000 "/>
<line x1="43.021" y1="16.000" x2="43.021" y2="17.000" stroke="#000000" stroke-width="0.250" />
<line x1="43.021" y1="29.000" x2="43.021" y2="30.000" stroke="#000000" stroke-width="0.250" />
<line x1="43.021" y1="22.000" x2="43.021" y2="24.000" stroke="#000000" stroke-width="0.250" />
</svg>