<?xml version="1.0" encoding="UTF-8" standalone="no"?>
<!-- Created with Inkscape (http://www.inkscape.org/) -->

<svg
   xmlns:dc="http://purl.org/dc/elements/1.1/"
   xmlns:cc="http://creativecommons.org/ns#"
   xmlns:rdf="http://www.w3.org/1999/02/22-rdf-syntax-ns#"
   xmlns:svg="http://www.w3.org/2000/svg"
   xmlns="http://www.w3.org/2000/svg"
   xmlns:xlink="http://www.w3.org/1999/xlink"
   xmlns:sodipodi="http://sodipodi.sourceforge.net/DTD/sodipodi-0.dtd"
   xmlns:inkscape="http://www.inkscape.org/namespaces/inkscape"
   sodipodi:docname="LBAfield-delay.svg"
   inkscape:version="0.47pre4 r22446"
   version="1.1"
   id="svg2"
   height="682.79382"
   width="665.84027">
  <sodipodi:namedview
     id="base"
     pagecolor="#ffffff"
     bordercolor="#666666"
     borderopacity="1.0"
     inkscape:pageopacity="0.0"
     inkscape:pageshadow="2"
     inkscape:zoom="0.35"
     inkscape:cx="-205.53156"
     inkscape:cy="588.64453"
     inkscape:document-units="px"
     inkscape:current-layer="layer1"
     showgrid="false"
     inkscape:window-width="1048"
     inkscape:window-height="828"
     inkscape:window-x="0"
     inkscape:window-y="0"
     inkscape:window-maximized="0" />
  <defs
     id="defs4">
    <marker
       inkscape:stockid="Arrow1Mend"
       orient="auto"
       refY="0"
       refX="0"
       id="Arrow1Mend"
       style="overflow:visible">
      <path
         id="path4960"
         d="M 0,0 5,-5 -12.5,0 5,5 0,0 z"
         style="fill-rule:evenodd;stroke:#000000;stroke-width:1pt;marker-start:none"
         transform="matrix(-0.4,0,0,-0.4,-4,0)" />
    </marker>
    <marker
       inkscape:stockid="Arrow2Mstart"
       orient="auto"
       refY="0"
       refX="0"
       id="Arrow2Mstart"
       style="overflow:visible">
      <path
         id="path4975"
         style="font-size:12px;fill-rule:evenodd;stroke-width:0.625;stroke-linejoin:round"
         d="M 8.7185878,4.0337352 -2.2072895,0.01601326 8.7185884,-4.0017078 c -1.7454984,2.3720609 -1.7354408,5.6174519 -6e-7,8.035443 z"
         transform="scale(0.6,0.6)" />
    </marker>
    <marker
       inkscape:stockid="Arrow1Lend"
       orient="auto"
       refY="0"
       refX="0"
       id="Arrow1Lend"
       style="overflow:visible">
      <path
         id="path4954"
         d="M 0,0 5,-5 -12.5,0 5,5 0,0 z"
         style="fill-rule:evenodd;stroke:#000000;stroke-width:1pt;marker-start:none"
         transform="matrix(-0.8,0,0,-0.8,-10,0)" />
    </marker>
    <marker
       inkscape:stockid="Arrow1Lstart"
       orient="auto"
       refY="0"
       refX="0"
       id="Arrow1Lstart"
       style="overflow:visible">
      <path
         id="path4951"
         d="M 0,0 5,-5 -12.5,0 5,5 0,0 z"
         style="fill-rule:evenodd;stroke:#000000;stroke-width:1pt;marker-start:none"
         transform="matrix(0.8,0,0,0.8,10,0)" />
    </marker>
    <inkscape:perspective
       id="perspective10"
       inkscape:persp3d-origin="372.04724 : 350.78739 : 1"
       inkscape:vp_z="744.09448 : 526.18109 : 1"
       inkscape:vp_y="0 : 1000 : 0"
       inkscape:vp_x="0 : 526.18109 : 1"
       sodipodi:type="inkscape:persp3d" />
    <inkscape:perspective
       sodipodi:type="inkscape:persp3d"
       inkscape:vp_x="0 : 0.5 : 1"
       inkscape:vp_y="0 : 1000 : 0"
       inkscape:vp_z="1 : 0.5 : 1"
       inkscape:persp3d-origin="0.5 : 0.33333333 : 1"
       id="perspective2884" />
    <inkscape:perspective
       sodipodi:type="inkscape:persp3d"
       inkscape:vp_x="0 : 0.5 : 1"
       inkscape:vp_y="0 : 1000 : 0"
       inkscape:vp_z="1 : 0.5 : 1"
       inkscape:persp3d-origin="0.5 : 0.33333333 : 1"
       id="perspective2997" />
    <inkscape:perspective
       sodipodi:type="inkscape:persp3d"
       inkscape:vp_x="0 : 0.5 : 1"
       inkscape:vp_y="0 : 1000 : 0"
       inkscape:vp_z="1 : 0.5 : 1"
       inkscape:persp3d-origin="0.5 : 0.33333333 : 1"
       id="perspective3019" />
    <inkscape:perspective
       sodipodi:type="inkscape:persp3d"
       inkscape:vp_x="0 : 0.5 : 1"
       inkscape:vp_y="0 : 1000 : 0"
       inkscape:vp_z="1 : 0.5 : 1"
       inkscape:persp3d-origin="0.5 : 0.33333333 : 1"
       id="perspective3041" />
    <inkscape:perspective
       id="perspective4886"
       inkscape:persp3d-origin="0.5 : 0.33333333 : 1"
       inkscape:vp_z="1 : 0.5 : 1"
       inkscape:vp_y="0 : 1000 : 0"
       inkscape:vp_x="0 : 0.5 : 1"
       sodipodi:type="inkscape:persp3d" />
    <inkscape:perspective
       id="perspective4908"
       inkscape:persp3d-origin="0.5 : 0.33333333 : 1"
       inkscape:vp_z="1 : 0.5 : 1"
       inkscape:vp_y="0 : 1000 : 0"
       inkscape:vp_x="0 : 0.5 : 1"
       sodipodi:type="inkscape:persp3d" />
    <inkscape:perspective
       id="perspective4932"
       inkscape:persp3d-origin="0.5 : 0.33333333 : 1"
       inkscape:vp_z="1 : 0.5 : 1"
       inkscape:vp_y="0 : 1000 : 0"
       inkscape:vp_x="0 : 0.5 : 1"
       sodipodi:type="inkscape:persp3d" />
    <inkscape:perspective
       id="perspective6350"
       inkscape:persp3d-origin="0.5 : 0.33333333 : 1"
       inkscape:vp_z="1 : 0.5 : 1"
       inkscape:vp_y="0 : 1000 : 0"
       inkscape:vp_x="0 : 0.5 : 1"
       sodipodi:type="inkscape:persp3d" />
    <inkscape:perspective
       id="perspective6372"
       inkscape:persp3d-origin="0.5 : 0.33333333 : 1"
       inkscape:vp_z="1 : 0.5 : 1"
       inkscape:vp_y="0 : 1000 : 0"
       inkscape:vp_x="0 : 0.5 : 1"
       sodipodi:type="inkscape:persp3d" />
  </defs>
  <metadata
     id="metadata7">
    <rdf:RDF>
      <cc:Work
         rdf:about="">
        <dc:format>image/svg+xml</dc:format>
        <dc:type
           rdf:resource="http://purl.org/dc/dcmitype/StillImage" />
        <dc:title></dc:title>
      </cc:Work>
    </rdf:RDF>
  </metadata>
  <g
     id="layer1"
     inkscape:groupmode="layer"
     inkscape:label="Layer 1"
     transform="translate(-1.4285644,-369.42549)">
    <image
       xlink:href="file:///home/mol/svn/lofar-papers/2011/europar/LBA-field.jpg"
       width="600"
       height="454"
       id="image2886"
       x="1.4285644"
       y="598.2193" />
    <path
       id="path4070"
       title="sin(x)"
       d="m 109.44983,649.45164 c -1.80697,-2.03049 -3.60765,-4.05812 -4.95171,-5.87584 -1.34407,-1.81773 -2.22139,-3.4209 -2.35702,-4.68315 -0.13563,-1.26224 0.47417,-2.18184 1.82186,-2.76225 1.3477,-0.58041 3.42918,-0.82352 5.95741,-0.86129 2.52823,-0.0378 5.49282,0.12507 8.439,0.27943 2.94619,0.15436 5.86135,0.29446 8.30015,0.21559 2.43879,-0.0789 4.39128,-0.38128 5.59494,-1.0279 1.20365,-0.64662 1.65512,-1.639 1.37694,-2.96677 -0.27819,-1.32777 -1.28151,-2.98886 -2.71112,-4.8459 -1.42961,-1.85705 -3.27489,-3.90517 -5.07708,-5.93347 -1.80219,-2.02831 -3.54871,-4.03103 -4.79953,-5.80588 -1.25082,-1.77487 -1.99629,-3.31743 -1.98653,-4.51285 0.01,-1.19541 0.77772,-2.04231 2.26634,-2.55795 1.48861,-0.51563 3.69299,-0.70225 6.30277,-0.70252 2.60979,-2.8e-4 5.61414,0.18082 8.55076,0.33079 2.93661,0.14996 5.79293,0.26301 8.13476,0.13957 2.34183,-0.12344 4.15977,-0.4877 5.21683,-1.2017 1.05706,-0.71401 1.35066,-1.77895 0.93336,-3.17067 -0.41732,-1.39173 -1.54032,-3.10783 -3.04742,-5.00049 -1.50709,-1.89267 -3.38726,-3.95682 -5.17511,-5.97853 -1.78786,-2.02172 -3.47088,-3.99525 -4.62112,-5.72388 -1.15024,-1.72863 -1.75858,-3.20816 -1.60117,-4.33571 0.1574,-1.12754 1.08274,-1.9021 2.70857,-2.35466 1.62583,-0.45256 3.94655,-0.58571 6.62966,-0.55227 2.68313,0.0334 5.71745,0.22832 8.63497,0.3695 2.91752,0.14119 5.70578,0.22295 7.94352,0.0517 2.23772,-0.17129 3.91609,-0.5997 4.82459,-1.382 0.90851,-0.78228 1.04537,-1.91927 0.4929,-3.37312 -0.55246,-1.45386 -1.78832,-3.22184 -3.36454,-5.14627 -1.57621,-1.92443 -3.48141,-4.00009 -5.24542,-6.01085 -1.76402,-2.01076 -3.37448,-3.95094 -4.41722,-5.63015 -1.04273,-1.67921 -1.50919,-3.09352 -1.20247,-4.15244 0.30672,-1.05891 1.388,-1.76178 3.14679,-2.15322 1.7588,-0.39145 4.18878,-0.47437 6.93674,-0.41113 2.74795,0.0632 5.80232,0.26734 8.69129,0.3954 2.88897,0.12806 5.60025,0.17444 7.72717,-0.0478 2.12692,-0.22223 3.66123,-0.71686 4.41983,-1.56806 0.75859,-0.8512 0.74046,-2.05944 0.0574,-3.57334 -0.6831,-1.5139 -2.02454,-3.33042 -3.66124,-5.28265 -1.6367,-1.95223 -3.55694,-4.03481 -5.28773,-6.03029 -1.73078,-1.99548 -3.2599,-3.89827 -4.18864,-5.52508 -0.92873,-1.62681 -1.24913,-2.97399 -0.79203,-3.96378 0.45709,-0.98979 1.69226,-1.62192 3.57923,-1.95445 1.88697,-0.33253 4.41874,-0.36866 7.22276,-0.27964 2.80401,0.089 5.86843,0.29772 8.71952,0.40837 2.85108,0.11064 5.47675,0.11767 7.48659,-0.15837 2.00984,-0.27605 3.39623,-0.83867 4.00415,-1.75914 0.6079,-0.92047 0.43716,-2.19885 -0.37154,-3.77047 -0.80869,-1.57164 -2.24802,-3.43315 -3.9363,-5.4091 -1.68829,-1.97595 -3.61356,-4.06083 -5.30184,-6.03678 -1.68829,-1.97595 -3.12762,-3.83745 -3.93631,-5.40909 -0.80871,-1.57163 -0.97946,-2.85002 -0.37154,-3.77048 0.6079,-0.92048 1.99431,-1.48309 4.00415,-1.75914 2.00984,-0.27604 4.63551,-0.26901 7.48659,-0.15836 2.85109,0.11064 5.9155,0.31935 8.71952,0.40836 2.80402,0.089 5.33579,0.0529 7.22276,-0.27964 1.88696,-0.33253 3.12214,-0.96466 3.57924,-1.95445 0.45709,-0.9898 0.13669,-2.33697 -0.79205,-3.96378 -0.92873,-1.62681 -2.45786,-3.5296 -4.18864,-5.52508 -1.73079,-1.99548 -3.65103,-4.07805 -5.28772,-6.03029 -1.6367,-1.95223 -2.97814,-3.76875 -3.66124,-5.28266 -0.68311,-1.51389 -0.70124,-2.72213 0.0574,-3.57333 0.75859,-0.8512 2.2929,-1.34583 4.41983,-1.56806 2.12692,-0.22222 4.83819,-0.17584 7.72716,-0.0478 2.88897,0.12807 5.94335,0.33215 8.6913,0.3954 2.74795,0.0632 5.17794,-0.0197 6.93673,-0.41113 1.75879,-0.39144 2.84008,-1.09431 3.1468,-2.15322 0.30672,-1.05892 -0.15973,-2.47323 -1.20248,-4.15244 -1.04273,-1.67921 -2.65319,-3.61939 -4.41721,-5.63015 -1.76402,-2.01075 -3.66921,-4.08641 -5.24543,-6.01085 -1.57621,-1.92443 -2.81207,-3.69241 -3.36454,-5.14626 -0.55247,-1.45386 -0.4156,-2.59085 0.49291,-3.37313 0.90851,-0.7823 2.58686,-1.21071 4.82459,-1.38201 2.23774,-0.17128 5.026,-0.0895 7.94352,0.0517 2.91752,0.14118 5.95184,0.33605 8.63496,0.3695 2.68312,0.0334 5.00383,-0.0997 6.62966,-0.55228 1.62583,-0.45256 2.55117,-1.22711 2.70858,-2.35466 0.15741,-1.12755 -0.45092,-2.60708 -1.60117,-4.33571 -1.15025,-1.72862 -2.83327,-3.70216 -4.62112,-5.72387 -1.78785,-2.02172 -3.66802,-4.08587 -5.17512,-5.97853 -1.50709,-1.89266 -2.63009,-3.60877 -3.0474,-5.0005 -0.41732,-1.39172 -0.12372,-2.45666 0.93335,-3.17066 1.05707,-0.71401 2.875,-1.07827 5.21683,-1.2017 2.34183,-0.12344 5.19814,-0.0104 8.13476,0.13957 2.93662,0.14996 5.94098,0.33106 8.55075,0.33078 2.60979,-2.6e-4 4.81417,-0.18688 6.30278,-0.70252 1.48862,-0.51564 2.25658,-1.36253 2.26634,-2.55794 0.01,-1.19542 -0.73571,-2.73799 -1.98653,-4.51285 -1.25083,-1.77486 -2.99734,-3.77758 -4.79953,-5.80588 -1.80219,-2.02831 -3.64747,-4.07642 -5.07708,-5.93347 -1.42961,-1.85704 -2.43293,-3.51814 -2.71112,-4.84591 -0.27818,-1.32777 0.17329,-2.32015 1.37694,-2.96677 1.20366,-0.64662 3.15615,-0.94903 5.59494,-1.0279 2.43879,-0.0789 5.35397,0.0612 8.30015,0.2156 2.94618,0.15435 5.91076,0.31718 8.439,0.27942 2.52822,-0.0378 4.6097,-0.28087 5.9574,-0.86128 1.3477,-0.58042 1.9575,-1.50002 1.82186,-2.76226 -0.13563,-1.26225 -1.01294,-2.86542 -2.35701,-4.68315 -1.34407,-1.81771 -3.14474,-3.84533 -4.95172,-5.87583"
       style="color:#000000;fill:none;stroke:#ff6565;stroke-width:6;stroke-linecap:butt;stroke-linejoin:miter;stroke-miterlimit:6.4000001;stroke-opacity:1;stroke-dasharray:none;stroke-dashoffset:0;marker:none;visibility:visible;display:inline;overflow:visible;enable-background:accumulate" />
    <path
       style="fill:none;stroke:#000000;stroke-width:6;stroke-linecap:butt;stroke-linejoin:miter;stroke-miterlimit:6.4000001;stroke-opacity:1;stroke-dasharray:6,12;stroke-dashoffset:0"
       d="M 492.02031,704.8009 113.36477,475.94232"
       id="path4922"
       sodipodi:nodetypes="cc" />
    <path
       style="fill:none;stroke:#000000;stroke-width:6;stroke-linecap:butt;stroke-linejoin:miter;stroke-miterlimit:6.4000001;stroke-opacity:1;stroke-dasharray:6,12;stroke-dashoffset:0"
       d="M 115,652.36218 31.135253,601.80454"
       id="path4922-3"
       sodipodi:nodetypes="cc" />
    <path
       style="fill:none;stroke:#000000;stroke-width:6;stroke-linecap:butt;stroke-linejoin:miter;stroke-miterlimit:6.4000001;stroke-opacity:1;stroke-dasharray:none;marker-start:url(#Arrow2Mstart);marker-mid:none;marker-end:url(#Arrow1Mend)"
       d="M 110.9235,480.05345 34.459029,597.93905"
       id="path4946"
       sodipodi:nodetypes="cc" />
    <text
       xml:space="preserve"
       style="font-size:64px;font-style:normal;font-variant:normal;font-weight:normal;font-stretch:normal;text-align:start;line-height:125%;writing-mode:lr-tb;text-anchor:start;fill:#000000;fill-opacity:1;stroke:none;font-family:Verdana;-inkscape-font-specification:Verdana"
       x="-426.14566"
       y="359.95926"
       id="text6338"
       transform="matrix(0.58809037,-0.80879522,0.80879522,0.58809037,0,0)"
       sodipodi:linespacing="125%"><tspan
         sodipodi:role="line"
         id="tspan6340"
         x="-426.14566"
         y="359.95926">Δt</tspan></text>
    <path
       id="path4070-8"
       title="sin(x)"
       d="m 489.09172,701.70127 c -1.80697,-2.03049 -3.60765,-4.05812 -4.95171,-5.87584 -1.34407,-1.81773 -2.22139,-3.4209 -2.35702,-4.68315 -0.13563,-1.26224 0.47417,-2.18184 1.82186,-2.76225 1.3477,-0.58041 3.42918,-0.82352 5.95741,-0.86129 2.52823,-0.0378 5.49282,0.12507 8.439,0.27943 2.94619,0.15436 5.86135,0.29446 8.30015,0.21559 2.43879,-0.0789 4.39128,-0.38128 5.59494,-1.0279 1.20365,-0.64662 1.65512,-1.639 1.37694,-2.96677 -0.27819,-1.32777 -1.28151,-2.98886 -2.71112,-4.8459 -1.42961,-1.85705 -3.27489,-3.90517 -5.07708,-5.93347 -1.80219,-2.02831 -3.54871,-4.03103 -4.79953,-5.80588 -1.25082,-1.77487 -1.99629,-3.31743 -1.98653,-4.51285 0.01,-1.19541 0.77772,-2.04231 2.26634,-2.55795 1.48861,-0.51563 3.69299,-0.70225 6.30277,-0.70252 2.60979,-2.8e-4 5.61414,0.18082 8.55076,0.33079 2.93661,0.14996 5.79293,0.26301 8.13476,0.13957 2.34183,-0.12344 4.15977,-0.4877 5.21683,-1.2017 1.05706,-0.71401 1.35066,-1.77895 0.93336,-3.17067 -0.41732,-1.39173 -1.54032,-3.10783 -3.04742,-5.00049 -1.50709,-1.89267 -3.38726,-3.95682 -5.17511,-5.97853 -1.78786,-2.02172 -3.47088,-3.99525 -4.62112,-5.72388 -1.15024,-1.72863 -1.75858,-3.20816 -1.60117,-4.33571 0.1574,-1.12754 1.08274,-1.9021 2.70857,-2.35466 1.62583,-0.45256 3.94655,-0.58571 6.62966,-0.55227 2.68313,0.0334 5.71745,0.22832 8.63497,0.3695 2.91752,0.14119 5.70578,0.22295 7.94352,0.0517 2.23772,-0.17129 3.91609,-0.5997 4.82459,-1.382 0.90851,-0.78228 1.04537,-1.91927 0.4929,-3.37312 -0.55246,-1.45386 -1.78832,-3.22184 -3.36454,-5.14627 -1.57621,-1.92443 -3.48141,-4.00009 -5.24542,-6.01085 -1.76402,-2.01076 -3.37448,-3.95094 -4.41722,-5.63015 -1.04273,-1.67921 -1.50919,-3.09352 -1.20247,-4.15244 0.30672,-1.05891 1.388,-1.76178 3.14679,-2.15322 1.7588,-0.39145 4.18878,-0.47437 6.93674,-0.41113 2.74795,0.0632 5.80232,0.26734 8.69129,0.3954 2.88897,0.12806 5.60025,0.17444 7.72717,-0.0478 2.12692,-0.22223 3.66123,-0.71686 4.41983,-1.56806 0.75859,-0.8512 0.74046,-2.05944 0.0574,-3.57334 -0.6831,-1.5139 -2.02454,-3.33042 -3.66124,-5.28265 -1.6367,-1.95223 -3.55694,-4.03481 -5.28773,-6.03029 -1.73078,-1.99548 -3.2599,-3.89827 -4.18864,-5.52508 -0.92873,-1.62681 -1.24913,-2.97399 -0.79203,-3.96378 0.45709,-0.98979 1.69226,-1.62192 3.57923,-1.95445 1.88697,-0.33253 4.41874,-0.36866 7.22276,-0.27964 2.80401,0.089 5.86843,0.29772 8.71952,0.40837 2.85108,0.11064 5.47675,0.11767 7.48659,-0.15837 2.00984,-0.27605 3.39623,-0.83867 4.00414,-1.75914 0.6079,-0.92047 0.43716,-2.19885 -0.37154,-3.77047 -0.80868,-1.57164 -2.24801,-3.43315 -3.93629,-5.4091 -1.68829,-1.97595 -3.61356,-4.06083 -5.30184,-6.03678 -1.68829,-1.97595 -3.12762,-3.83745 -3.93631,-5.40909 -0.80871,-1.57163 -0.97946,-2.85002 -0.37154,-3.77048 0.6079,-0.92048 1.99431,-1.48309 4.00415,-1.75914 2.00984,-0.27604 4.63551,-0.26901 7.48659,-0.15836 2.85108,0.11064 5.91549,0.31935 8.71951,0.40836 2.80402,0.089 5.33579,0.0529 7.22276,-0.27964 1.88696,-0.33253 3.12214,-0.96466 3.57924,-1.95445 0.45709,-0.9898 0.13669,-2.33697 -0.79205,-3.96378 -0.92873,-1.62681 -2.45786,-3.5296 -4.18864,-5.52508 -1.73079,-1.99548 -3.65103,-4.07805 -5.28772,-6.03029 -1.6367,-1.95223 -2.97814,-3.76875 -3.66124,-5.28266 -0.68311,-1.51389 -0.70124,-2.72213 0.0574,-3.57333 0.75859,-0.8512 2.2929,-1.34583 4.41983,-1.56806 2.12692,-0.22222 4.83819,-0.17584 7.72716,-0.0478 2.88897,0.12807 5.94335,0.33215 8.6913,0.3954 2.74795,0.0632 5.17794,-0.0197 6.93673,-0.41113 1.75879,-0.39144 2.84008,-1.09431 3.1468,-2.15322 0.30672,-1.05892 -0.15973,-2.47323 -1.20248,-4.15244 -1.04273,-1.67921 -2.65319,-3.61939 -4.41721,-5.63015 -1.76402,-2.01075 -3.66921,-4.08641 -5.24543,-6.01085 -1.57621,-1.92443 -2.81207,-3.69241 -3.36454,-5.14626 -0.55247,-1.45386 -0.4156,-2.59085 0.49291,-3.37313 0.90851,-0.7823 2.58686,-1.21071 4.82459,-1.38201 2.23774,-0.17128 5.026,-0.0895 7.94352,0.0517 2.91752,0.14118 5.95184,0.33605 8.63496,0.3695 2.68312,0.0334 5.00383,-0.0997 6.62966,-0.55228 1.62583,-0.45256 2.55117,-1.22711 2.70858,-2.35466 0.15741,-1.12755 -0.45092,-2.60708 -1.60117,-4.33571 -1.15025,-1.72862 -2.83327,-3.70216 -4.62112,-5.72387 -1.78785,-2.02172 -3.66802,-4.08587 -5.17512,-5.97853 -1.50709,-1.89266 -2.63009,-3.60877 -3.0474,-5.0005 -0.41732,-1.39172 -0.12372,-2.45666 0.93335,-3.17066 1.05707,-0.71401 2.875,-1.07827 5.21683,-1.2017 2.34183,-0.12344 5.19814,-0.0104 8.13476,0.13957 2.93662,0.14996 5.94098,0.33106 8.55075,0.33078 2.60979,-2.6e-4 4.81417,-0.18688 6.30278,-0.70252 1.48862,-0.51564 2.25658,-1.36253 2.26634,-2.55794 0.01,-1.19542 -0.73571,-2.73799 -1.98653,-4.51285 -1.25083,-1.77486 -2.99734,-3.77758 -4.79953,-5.80588 -1.80219,-2.02831 -3.64747,-4.07642 -5.07708,-5.93347 -1.42961,-1.85704 -2.43293,-3.51814 -2.71112,-4.84591 -0.27818,-1.32777 0.17329,-2.32015 1.37694,-2.96677 1.20366,-0.64662 3.15615,-0.94903 5.59494,-1.0279 2.43879,-0.0789 5.35397,0.0612 8.30015,0.2156 2.94618,0.15435 5.91076,0.31718 8.439,0.27942 2.52822,-0.0378 4.6097,-0.28087 5.9574,-0.86128 1.3477,-0.58042 1.9575,-1.50002 1.82186,-2.76226 -0.13563,-1.26225 -1.01294,-2.86542 -2.35701,-4.68315 -1.34407,-1.81771 -3.14474,-3.84533 -4.95172,-5.87583"
       style="color:#000000;fill:none;stroke:#ff6565;stroke-width:6;stroke-linecap:butt;stroke-linejoin:miter;stroke-miterlimit:6.4000001;stroke-opacity:1;stroke-dasharray:none;stroke-dashoffset:0;marker:none;visibility:visible;display:inline;overflow:visible;enable-background:accumulate" />
  </g>
</svg>
